# xmcd
#
# Track frame offsets:
#	150
#	13218
#	27470
#	44866
#	55346
#	71439
#	83106
#	96651
#	109311
#	123052
#
# Disc length: 1910 seconds
#
# Revision: 1
# Processed by: cddbd v1.5.2PL0 Copyright (c) Steve Scherf et al.
# Submitted via: audiograbber 1.83.01
#
DISCID=8f07740a
DTITLE=Mike MacDonald and The Widow Makers - Gravel Roads And Skyscrapers
DYEAR=2007
DGENRE=Alt Country/Americana
TTITLE0=Never Had The Chance
TTITLE1=Gravel Roads And Skyscrapers
TTITLE2=Whiskey In A Bottle
TTITLE3=Broken Records And Broken Hearts
TTITLE4=Don't Say Your Leaving
TTITLE5=If I Had A Dollar
TTITLE6=A Little Bit More
TTITLE7=Nothing In My Head
TTITLE8=Maybe I'll Win
TTITLE9=Whiskey In A Bottle (Demo Version)
EXTD=
EXTT0=
EXTT1=
EXTT2=
EXTT3=
EXTT4=
EXTT5=
EXTT6=
EXTT7=
EXTT8=
EXTT9=
PLAYORDER=
